name C:\Users\u0150099\Documents\master_thesis\3dpredictsim\Results\debug\Fal_s1_mtjc2_sc_cspx10_cg2_ATx70_Fpsl10_MTc2_MTPm_k1_d01_MTJm_nl_MG_exp5_table_d01_PF_Natali2010_ls146_FDB2_lTs125_Fpsl10_ig21_wAk2e+04_wa2e+03_wpMnD1e+03_test1.mot
datacolumns 130
datarows 4
range 1.76231860 1.79756497
endheader
time	pelvis_tilt	pelvis_list	pelvis_rotation	pelvis_tx	pelvis_ty	pelvis_tz	hip_flexion_l	hip_adduction_l	hip_rotation_l	hip_flexion_r	hip_adduction_r	hip_rotation_r	knee_angle_l	knee_angle_r	ankle_angle_l	ankle_angle_r	subtalar_angle_l	subtalar_angle_r	mtj_angle_l	mtj_angle_r	mtp_angle_l	mtp_angle_r	lumbar_extension	lumbar_bending	lumbar_rotation	arm_flex_l	arm_add_l	arm_rot_l	arm_flex_r	arm_add_r	arm_rot_r	elbow_flex_l	elbow_flex_r	pro_sup_l	pro_sup_r	glut_med1_l/activation	glut_med2_l/activation	glut_med3_l/activation	glut_min1_l/activation	glut_min2_l/activation	glut_min3_l/activation	semimem_l/activation	semiten_l/activation	bifemlh_l/activation	bifemsh_l/activation	sar_l/activation	add_long_l/activation	add_brev_l/activation	add_mag1_l/activation	add_mag2_l/activation	add_mag3_l/activation	tfl_l/activation	pect_l/activation	grac_l/activation	glut_max1_l/activation	glut_max2_l/activation	glut_max3_l/activation	iliacus_l/activation	psoas_l/activation	quad_fem_l/activation	gem_l/activation	peri_l/activation	rect_fem_l/activation	vas_med_l/activation	vas_int_l/activation	vas_lat_l/activation	med_gas_l/activation	lat_gas_l/activation	soleus_l/activation	tib_post_l/activation	flex_dig_l/activation	flex_hal_l/activation	tib_ant_l/activation	per_brev_l/activation	per_long_l/activation	per_tert_l/activation	ext_dig_l/activation	ext_hal_l/activation	FDB_l/activation	ercspn_l/activation	intobl_l/activation	extobl_l/activation	glut_med1_r/activation	glut_med2_r/activation	glut_med3_r/activation	glut_min1_r/activation	glut_min2_r/activation	glut_min3_r/activation	semimem_r/activation	semiten_r/activation	bifemlh_r/activation	bifemsh_r/activation	sar_r/activation	add_long_r/activation	add_brev_r/activation	add_mag1_r/activation	add_mag2_r/activation	add_mag3_r/activation	tfl_r/activation	pect_r/activation	grac_r/activation	glut_max1_r/activation	glut_max2_r/activation	glut_max3_r/activation	iliacus_r/activation	psoas_r/activation	quad_fem_r/activation	gem_r/activation	peri_r/activation	rect_fem_r/activation	vas_med_r/activation	vas_int_r/activation	vas_lat_r/activation	med_gas_r/activation	lat_gas_r/activation	soleus_r/activation	tib_post_r/activation	flex_dig_r/activation	flex_hal_r/activation	tib_ant_r/activation	per_brev_r/activation	per_long_r/activation	per_tert_r/activation	ext_dig_r/activation	ext_hal_r/activation	FDB_r/activation	ercspn_r/activation	intobl_r/activation	extobl_r/activation	
          1.76231860	         -0.12038896	         -1.66578586	         -1.89305649	          2.14013100	          0.89471177	          0.05147988	         30.79127278	          1.38977362	          3.30921590	        -16.58226652	          5.01184921	         -1.06807296	        -16.18639675	        -15.62686415	          2.29994834	         12.19987741	          0.62426421	         10.76561623	         -1.03504957	          0.71425853	         -2.12960966	          0.96434760	         -6.68260360	          2.47773581	          2.75907669	          0.23469904	        -32.67353373	          3.95109304	         11.47904625	        -31.22631408	          4.60048176	         35.68057347	         52.35211734	         86.51662706	         86.51662706	          0.29551033	          0.32040340	          0.33631805	          0.34157038	          0.34281118	          0.34497664	          0.37214048	          0.35895982	          0.35521825	          0.44305006	          0.38788514	          0.35965188	          0.34690948	          0.33677808	          0.32830180	          0.28990004	          0.36529805	          0.34261060	          0.36389368	          0.32231130	          0.30115260	          0.28919681	          0.44385681	          0.44031885	          0.36732279	          0.36391929	          0.35414832	          0.31693879	          0.26554993	          0.26093909	          0.24777584	          0.24011784	          0.29000866	          0.11551247	          0.32675973	          0.30267324	          0.31728256	          0.41230987	          0.34231469	          0.35494990	          0.36716470	          0.49090480	          0.45239009	          0.31087085	          0.38555610	          0.39169251	          0.32881213	          0.37282321	          0.33709951	          0.31130885	          0.36417608	          0.35625562	          0.34621436	          0.30574265	          0.35098211	          0.32882128	          0.36139420	          0.35900173	          0.35295769	          0.34760498	          0.33513323	          0.31896356	          0.33049714	          0.35237664	          0.35420968	          0.35157695	          0.30628166	          0.30543482	          0.30583208	          0.37991640	          0.38136922	          0.32420190	          0.34721827	          0.33412652	          0.35435710	          0.33420032	          0.33289774	          0.32269827	          0.32223814	          0.33292551	          0.30697882	          0.35932712	          0.35706855	          0.35435842	          0.37969674	          0.33479283	          0.30532173	          0.35388248	          0.34924573	          0.35132404	          0.38038246	          0.37277449	          0.28827696	          0.34565195	
          1.77406739	         -0.10975074	         -1.30286157	         -1.93158286	          2.15736950	          0.89276804	          0.05132786	         30.82109754	          2.02570839	          3.32176837	        -16.87202931	          4.43452076	         -1.50686325	        -17.34243908	        -17.08927174	          2.00479796	         10.90178128	          0.71041940	         11.27111165	         -1.11134846	          0.85461971	         -1.77567683	          1.35846714	         -6.32708202	          2.02491898	          2.81477799	          0.16495005	        -32.76579805	          4.00393957	         11.66150522	        -31.19979137	          4.28715037	         35.70658275	         53.08476333	         86.51662706	         86.51662706	          0.29945370	          0.31801658	          0.32958494	          0.34201741	          0.34242632	          0.34349530	          0.37776106	          0.36241385	          0.36071780	          0.44625539	          0.38681472	          0.36207431	          0.35019050	          0.33800899	          0.32993555	          0.29469396	          0.36404086	          0.34124534	          0.36541161	          0.31930983	          0.29713066	          0.28954449	          0.44502665	          0.43894851	          0.36274352	          0.36194573	          0.35017365	          0.30955753	          0.26099567	          0.25621125	          0.24211028	          0.25621346	          0.29786080	          0.13244568	          0.32810983	          0.30246196	          0.31768539	          0.38859378	          0.34537671	          0.36074752	          0.36231427	          0.47927491	          0.44833793	          0.30637798	          0.38122993	          0.38379586	          0.33355982	          0.36992311	          0.33433769	          0.30717795	          0.36282294	          0.35489954	          0.34467709	          0.30510234	          0.35338390	          0.32822508	          0.36326232	          0.35824491	          0.35560896	          0.34953142	          0.33712745	          0.32011784	          0.33082592	          0.35062158	          0.35424668	          0.35214494	          0.30570986	          0.30486526	          0.30549588	          0.37842761	          0.38007550	          0.32245753	          0.34509538	          0.33216256	          0.34342144	          0.32839432	          0.32667448	          0.31421373	          0.33164421	          0.33742750	          0.32431912	          0.36316799	          0.35747771	          0.35432244	          0.37845690	          0.33009690	          0.29402112	          0.35192878	          0.34042033	          0.34664105	          0.37338778	          0.36530408	          0.29634035	          0.34446540	
          1.78581618	         -0.10675048	         -0.88110246	         -2.00182354	          2.17476699	          0.89089108	          0.05121225	         30.77977923	          2.69197359	          3.31370565	        -17.07018855	          3.77222397	         -1.87029409	        -18.50297340	        -18.68025982	          1.33129866	          9.44850790	          0.76000680	         11.69435502	         -0.97494695	          0.89253190	         -1.47600203	          1.80525458	         -5.95623246	          1.51399310	          2.89804615	          0.18610735	        -32.85874547	          4.01641062	         11.91324263	        -31.15320249	          4.00986906	         35.77385990	         53.81013064	         86.51662706	         86.51662706	          0.31319387	          0.32202881	          0.32869101	          0.34465570	          0.34429926	          0.34494348	          0.38690980	          0.36737399	          0.37167039	          0.43703741	          0.38178157	          0.36115769	          0.35313265	          0.33982406	          0.33365865	          0.30815493	          0.36100185	          0.33951287	          0.36548616	          0.32151812	          0.30198222	          0.29936384	          0.42885170	          0.42195640	          0.35803546	          0.35976051	          0.34785928	          0.30147283	          0.26442435	          0.25974966	          0.24468332	          0.25774239	          0.29838913	          0.13721564	          0.32480292	          0.30216559	          0.31726464	          0.36595938	          0.34880884	          0.36446371	          0.35848747	          0.48038814	          0.45090361	          0.30354962	          0.37290616	          0.37553210	          0.32939996	          0.36932410	          0.33007746	          0.30004976	          0.36208111	          0.35368496	          0.34260349	          0.30461718	          0.35732061	          0.32776007	          0.36664054	          0.35775614	          0.35923994	          0.35221190	          0.33897387	          0.32157505	          0.33150839	          0.34918834	          0.35460683	          0.35305272	          0.30520117	          0.30430726	          0.30514421	          0.37750569	          0.37891356	          0.31887840	          0.34210453	          0.32886960	          0.32924433	          0.32039792	          0.31813255	          0.30281414	          0.33484926	          0.33914180	          0.32644083	          0.36670882	          0.35810054	          0.35436245	          0.38611588	          0.32273515	          0.28061423	          0.35031256	          0.33305217	          0.34219242	          0.36846079	          0.37258691	          0.30453346	          0.35197521	
          1.79756497	         -0.12633245	         -0.39505189	         -2.09818344	          2.19222676	          0.88913456	          0.05113520	         30.77707149	          3.34858066	          3.30242402	        -17.12359483	          3.01723099	         -2.19229308	        -19.92369796	        -20.43716805	         -0.28738523	          7.84890971	          0.87169970	         12.03629107	         -0.40726340	          0.76938765	         -1.46893451	          2.28484633	         -5.56101172	          0.94719731	          3.00225711	          0.28891359	        -32.94761390	          3.99006672	         12.20550320	        -31.08168772	          3.78232326	         35.87074969	         54.49837763	         86.51662706	         86.51662706	          0.34089888	          0.33461546	          0.33252124	          0.35153034	          0.35011035	          0.34910052	          0.39909000	          0.37544746	          0.38564144	          0.42409057	          0.37335746	          0.35712611	          0.35392239	          0.34106244	          0.33813069	          0.32514424	          0.35755334	          0.33718036	          0.36485823	          0.32823463	          0.31381326	          0.31365590	          0.40703320	          0.40126137	          0.35064755	          0.35693690	          0.34528012	          0.29024879	          0.27221526	          0.26768226	          0.25191824	          0.25728410	          0.29819999	          0.13956381	          0.32034149	          0.30289488	          0.31691469	          0.37728249	          0.34953986	          0.36216731	          0.36159023	          0.48846867	          0.45342694	          0.29667494	          0.35851389	          0.37151141	          0.32069976	          0.37235172	          0.32394791	          0.28930355	          0.36276553	          0.35289335	          0.33994394	          0.30430974	          0.36232234	          0.32715764	          0.37275603	          0.35745191	          0.36261343	          0.35428395	          0.34006693	          0.32315767	          0.33229411	          0.34850903	          0.35485071	          0.35386600	          0.30466826	          0.30363987	          0.30457529	          0.37983766	          0.38192805	          0.31123020	          0.33774723	          0.32436534	          0.31331819	          0.30924217	          0.30631019	          0.28784192	          0.33355596	          0.33863575	          0.31813905	          0.37006237	          0.35841997	          0.35419396	          0.40837960	          0.31328177	          0.26655399	          0.34946748	          0.32793099	          0.33817620	          0.36342481	          0.39262822	          0.30589714	          0.36547711	
